<svg xmlns="http://www.w3.org/2000/svg" version="1.1" xmlns:xlink="http://www.w3.org/1999/xlink"
    xmlns:svgjs="http://svgjs.dev/svgjs" width="2000" height="454" viewBox="0 0 2000 454">
    <g transform="matrix(1,0,0,1,2.128704037800503,2.3754490378838113)"><svg viewBox="0 0 396 90"
            data-background-color="#ffffff" preserveAspectRatio="xMidYMid meet" height="454" width="2000"
            xmlns="http://www.w3.org/2000/svg" xmlns:xlink="http://www.w3.org/1999/xlink">
            <g id="tight-bounds" transform="matrix(1,0,0,1,0.2400000000000091,0.1932967401775727)"><svg
                    viewBox="0 0 395.52 89.61340651964485" height="89.61340651964485" width="395.52">
                    <g><svg viewBox="0 0 656.6781805199281 148.78430608695652" height="89.61340651964485"
                            width="395.52">
                            <g transform="matrix(1,0,0,1,261.1581805199281,38.965382596825165)"><svg
                                    viewBox="0 0 395.52 70.85354089330619" height="70.85354089330619" width="395.52">
                                    <g id="textblocktransform"><svg viewBox="0 0 395.52 70.85354089330619"
                                            height="70.85354089330619" width="395.52" id="textblock">
                                            <g><svg viewBox="0 0 395.52 70.85354089330619" height="70.85354089330619"
                                                    width="395.52">
                                                    <g transform="matrix(1,0,0,1,0,0)"><svg width="395.52"
                                                            viewBox="4.13 -36.04 203.87 36.53"
                                                            height="70.85354089330619" data-palette-color="#ffffff">
                                                            <path
                                                                d="M25.76 0L13.16-16.53 8.81-12.01 8.81 0 4.13 0 4.13-35.55 8.81-35.55 8.81-17.97 24.61-35.55 30.27-35.55 16.28-19.85 31.37 0 25.76 0ZM58.49 0L55.1-9.28 40.21-9.28 36.86 0 32.03 0 45.6-35.55 49.7-35.55 63.3 0 58.49 0ZM47.65-29.76L41.62-13.13 53.71-13.13 47.65-29.76ZM68.09-35.55L74.14-35.55 85.76-6.54 97.38-35.55 103.46-35.55 103.46 0 98.77 0 98.77-13.84 99.21-28.78 87.54 0 83.95 0 72.31-28.71 72.77-13.84 72.77 0 68.09 0 68.09-35.55ZM111.74-35.55L117.79-35.55 129.41-6.54 141.03-35.55 147.11-35.55 147.11 0 142.42 0 142.42-13.84 142.86-28.78 131.19 0 127.6 0 115.96-28.71 116.42-13.84 116.42 0 111.74 0 111.74-35.55ZM156.31-35.55L165.54-17.7 174.82-35.55 180.14-35.55 167.89-13.26 167.89 0 163.2 0 163.2-13.26 150.94-35.55 156.31-35.55ZM194.81-15.84L194.81-15.84Q188.78-17.58 186.03-20.1 183.29-22.63 183.29-26.34L183.29-26.34Q183.29-30.54 186.65-33.29 190-36.04 195.37-36.04L195.37-36.04Q199.04-36.04 201.9-34.62 204.77-33.2 206.35-30.71 207.92-28.22 207.92-25.27L207.92-25.27 203.21-25.27Q203.21-28.49 201.16-30.33 199.11-32.18 195.37-32.18L195.37-32.18Q191.91-32.18 189.97-30.65 188.02-29.13 188.02-26.42L188.02-26.42Q188.02-24.24 189.87-22.74 191.71-21.24 196.14-20 200.57-18.75 203.08-17.25 205.58-15.75 206.79-13.75 208-11.74 208-9.03L208-9.03Q208-4.71 204.63-2.11 201.26 0.49 195.62 0.49L195.62 0.49Q191.96 0.49 188.78-0.92 185.61-2.32 183.89-4.76 182.17-7.2 182.17-10.3L182.17-10.3 186.88-10.3Q186.88-7.08 189.26-5.21 191.64-3.34 195.62-3.34L195.62-3.34Q199.33-3.34 201.31-4.86 203.28-6.37 203.28-8.98 203.28-11.6 201.45-13.02 199.62-14.45 194.81-15.84Z"
                                                                opacity="1" transform="matrix(1,0,0,1,0,0)"
                                                                fill="#ffffff" class="wordmark-text-0"
                                                                data-fill-palette-color="primary" id="text-0"></path>
                                                        </svg></g>
                                                </svg></g>
                                        </svg></g>
                                </svg></g>
                            <g><svg viewBox="0 0 244.43135999999998 148.78430608695652" height="148.78430608695652"
                                    width="244.43135999999998">
                                    <g><svg xmlns:x="http://ns.adobe.com/Extensibility/1.0/"
                                            xmlns:i="http://ns.adobe.com/AdobeIllustrator/10.0/"
                                            xmlns:graph="http://ns.adobe.com/Graphs/1.0/"
                                            xmlns="http://www.w3.org/2000/svg"
                                            xmlns:xlink="http://www.w3.org/1999/xlink" version="1.1" x="0" y="0"
                                            viewBox="9 17 46 28" enable-background="new 0 0 64 64" xml:space="preserve"
                                            height="148.78430608695652" width="244.43135999999998" class="icon-icon-0"
                                            data-fill-palette-color="accent" id="icon-0">
                                            <g fill="rgb(25, 118, 210)" data-fill-palette-color="accent">
                                                <path
                                                    d="M54 17H16A1 1 0 0 0 15.014 17.835L13.153 29H10A1 1 0 0 0 9 30V40A1 1 0 0 0 10 41H15.101C15.566 43.279 17.585 45 20 45S24.434 43.279 24.899 41H39.102C39.566 43.279 41.586 45 44 45S48.435 43.279 48.898 41H54A1 1 0 0 0 55 40V18A1 1 0 0 0 54 17M16.847 19H23V29H15.181zM23 40.002A3.003 3.003 0 0 1 20 43C18.346 43 17 41.654 17 40S18.346 37 20 37A3.003 3.003 0 0 1 23 39.998zM44 43C42.346 43 41 41.654 41 40S42.346 37 44 37 47 38.346 47 40 45.654 43 44 43"
                                                    fill="rgb(25, 118, 210)" data-fill-palette-color="accent"></path>
                                            </g>
                                        </svg>
                                        <g></g>
                                    </g>
                                </svg></g>
                        </svg></g>
                    <defs></defs>
                </svg>
                <rect width="395.52" height="89.61340651964485" fill="none" stroke="none" visibility="hidden"></rect>
            </g>
        </svg></g>
</svg>