<?xml version="1.0" encoding="UTF-8" standalone="no"?>
<svg
   version="1.1"
   width="770.33246"
   height="535.03839"
   viewBox="0 0 770.33246 535.03839"
   id="svg10"
   sodipodi:docname="logo-dark-without-text.svg"
   inkscape:version="1.3.2 (091e20ef0f, 2023-11-25, custom)"
   xmlns:inkscape="http://www.inkscape.org/namespaces/inkscape"
   xmlns:sodipodi="http://sodipodi.sourceforge.net/DTD/sodipodi-0.dtd"
   xmlns="http://www.w3.org/2000/svg"
   xmlns:svg="http://www.w3.org/2000/svg">
  <defs
     id="defs10" />
  <sodipodi:namedview
     id="namedview10"
     pagecolor="#ffffff"
     bordercolor="#000000"
     borderopacity="0.25"
     inkscape:showpageshadow="2"
     inkscape:pageopacity="0.0"
     inkscape:pagecheckerboard="0"
     inkscape:deskcolor="#d1d1d1"
     inkscape:zoom="0.9775"
     inkscape:cx="1003.0691"
     inkscape:cy="254.73146"
     inkscape:window-width="2560"
     inkscape:window-height="1375"
     inkscape:window-x="1920"
     inkscape:window-y="41"
     inkscape:window-maximized="1"
     inkscape:current-layer="svg10" />
  <g
     transform="translate(5.1977576,29.996932)"
     id="g9">
    <svg
       viewBox="0 0 396 90"
       data-background-color="#ffffff"
       preserveAspectRatio="xMidYMid"
       height="454"
       width="2000"
       version="1.1"
       id="svg9">
      <g
         id="tight-bounds"
         transform="translate(0.24,0.19329674)">
        <svg
           viewBox="0 0 395.52 89.613407"
           height="89.613403"
           width="395.51999"
           version="1.1"
           id="svg8">
          <g
             id="g8">
            <svg
               viewBox="0 0 656.67818 148.78431"
               height="89.613403"
               width="395.51999"
               version="1.1"
               id="svg7">
              <g
                 transform="translate(261.15818,38.965383)"
                 id="g3">
                <svg
                   viewBox="0 0 395.52 70.853541"
                   height="70.853539"
                   width="395.51999"
                   version="1.1"
                   id="svg3">
                  <g
                     id="textblocktransform">
                    <svg
                       viewBox="0 0 395.52 70.853541"
                       height="70.853539"
                       width="395.51999"
                       id="textblock"
                       version="1.1">
                      <g
                         id="g2">
                        <svg
                           viewBox="0 0 395.52 70.853541"
                           height="70.853539"
                           width="395.51999"
                           version="1.1"
                           id="svg2">
                          <g
                             id="g1">
                            <svg
                               width="395.51999"
                               viewBox="4.13 -36.04 203.87 36.53"
                               height="70.853539"
                               data-palette-color="#ffffff"
                               version="1.1"
                               id="svg1" />
                          </g>
                        </svg>
                      </g>
                    </svg>
                  </g>
                </svg>
              </g>
              <g
                 id="g7">
                <svg
                   viewBox="0 0 244.43136 148.78431"
                   height="148.7843"
                   width="244.43137"
                   version="1.1"
                   id="svg6">
                  <g
                     id="g6">
                    <svg
                       version="1.1"
                       x="0"
                       y="0"
                       viewBox="9 17 46 28"
                       enable-background="new 0 0 64 64"
                       xml:space="preserve"
                       height="148.7843"
                       width="244.43137"
                       class="icon-icon-0"
                       data-fill-palette-color="accent"
                       id="icon-0">
                                            <g
   fill="#1976d2"
   data-fill-palette-color="accent"
   id="g4">
                                                <path
   d="M 54,17 H 16 a 1,1 0 0 0 -0.986,0.835 L 13.153,29 H 10 a 1,1 0 0 0 -1,1 v 10 a 1,1 0 0 0 1,1 h 5.101 c 0.465,2.279 2.484,4 4.899,4 2.415,0 4.434,-1.721 4.899,-4 h 14.203 c 0.464,2.279 2.484,4 4.898,4 2.414,0 4.435,-1.721 4.898,-4 H 54 a 1,1 0 0 0 1,-1 V 18 A 1,1 0 0 0 54,17 M 16.847,19 H 23 V 29 H 15.181 Z M 23,40.002 A 3.003,3.003 0 0 1 20,43 c -1.654,0 -3,-1.346 -3,-3 0,-1.654 1.346,-3 3,-3 a 3.003,3.003 0 0 1 3,2.998 z M 44,43 c -1.654,0 -3,-1.346 -3,-3 0,-1.654 1.346,-3 3,-3 1.654,0 3,1.346 3,3 0,1.654 -1.346,3 -3,3"
   fill="#1976d2"
   data-fill-palette-color="accent"
   id="path3" />
                                            </g>
                                        </svg>
                    <g
                       id="g5" />
                  </g>
                </svg>
              </g>
            </svg>
          </g>
          <defs
             id="defs8" />
        </svg>
        <rect
           width="395.51999"
           height="89.613403"
           fill="none"
           stroke="none"
           visibility="hidden"
           id="rect8"
           x="0"
           y="0" />
      </g>
    </svg>
  </g>
</svg>
