<svg height="85.333328" viewBox="0 0 85.333328 85.333328" width="85.333328" xmlns="http://www.w3.org/2000/svg">
    <g transform="matrix(.13333333 0 0 -.13333333 0 85.333331)">
        <path d="m640 320c0-176.73-143.27-320-320-320s-320 143.27-320 320 143.27 320 320 320 320-143.27 320-320"
            fill="#1c1c1c" />
        <path
            d="m180 160c-22.094 0-40 17.91-40 40v20c-22.094 0-40 17.91-40 40v160c0 22.094 17.906 40 40 40h220c22.094 0 40-17.906 40-40v-160c0-22.09 0-40 0-40h-180v-20c0-22.09-17.906-40-40-40"
            fill="#0096c7" />
        <path
            d="m460 160c-22.094 0-40 17.91-40 40v20 10 30 80 40h80c22.094 0 40-17.906 40-40v-120s-17.906 0-40 0v-20c0-22.09-17.906-40-40-40"
            fill="#0096c7" />
        <path
            d="m400 280c0-22.09 0-40 0-40h-260c-22.09 0-40 17.91-40 40v160c0 22.09 17.91 40 40 40h220c22.094 0 40-17.91 40-40z"
            fill="#00b4d8" />
        <path d="m540 240s-17.906 0-40 0h-80v40 80 40h80c22.094 0 40-17.91 40-40z" fill="#48cae4" />
        <g fill="#ade8f4">
            <path d="m180 180c22.094 0 40 17.91 40 40h-80c0-22.09 17.906-40 40-40" />
            <path d="m460 180c22.094 0 40 17.91 40 40h-80c0-22.09 17.906-40 40-40" />
        </g>
    </g>
</svg>